<svg width="16" height="16" viewBox="0 0 16 16" fill="none" xmlns="http://www.w3.org/2000/svg">
<path d="M0.266665 15.4667H1.86667V6.66667C1.86667 6.5194 1.98607 6.4 2.13333 6.4H5.86667V0.266667C5.86667 0.1194 5.98607 0 6.13333 0H13.0667C13.2139 0 13.3333 0.1194 13.3333 0.266667V15.4667H15.7333C15.8806 15.4667 16 15.5861 16 15.7333C16 15.8806 15.8806 16 15.7333 16H0.266665C0.119399 16 0 15.8806 0 15.7333C0 15.5861 0.119399 15.4667 0.266665 15.4667ZM10.4 15.4667H11.4667V13.0667C11.4667 12.9194 11.3473 12.8 11.2 12.8H10.6667C10.5194 12.8 10.4 12.9194 10.4 13.0667V15.4667ZM9.33333 6.66667V15.4667H9.86667V13.0667C9.86667 12.6248 10.2248 12.2667 10.6667 12.2667H11.2C11.6418 12.2667 12 12.6248 12 13.0667V15.4667H12.8V0.533333H6.4V6.4H9.06667C9.21393 6.4 9.33333 6.5194 9.33333 6.66667ZM2.4 15.4667H8.8V6.93333H2.4V15.4667Z" fill="#84829A"/>
<path d="M7.46658 2.7334H9.06659C9.21385 2.7334 9.33325 2.8528 9.33325 3.00007V4.60007C9.33325 4.74733 9.21385 4.86673 9.06659 4.86673H7.46658C7.31932 4.86673 7.19992 4.74733 7.19992 4.60007V3.00007C7.19992 2.8528 7.31932 2.7334 7.46658 2.7334ZM7.73325 4.3334H8.79992V3.26673H7.73325V4.3334Z" fill="#84829A"/>
<path d="M7.46658 0.0666504H9.06659C9.21385 0.0666504 9.33325 0.18605 9.33325 0.333317V1.93332C9.33325 2.08058 9.21385 2.19998 9.06659 2.19998H7.46658C7.31932 2.19998 7.19992 2.08058 7.19992 1.93332V0.333317C7.19992 0.18605 7.31932 0.0666504 7.46658 0.0666504ZM7.73325 1.66665H8.79992V0.599984H7.73325V1.66665Z" fill="#84829A"/>
<path d="M10.1333 2.7334H11.7333C11.8806 2.7334 12 2.8528 12 3.00007V4.60007C12 4.74733 11.8806 4.86673 11.7333 4.86673H10.1333C9.98607 4.86673 9.86667 4.74733 9.86667 4.60007V3.00007C9.86667 2.8528 9.98607 2.7334 10.1333 2.7334ZM10.4 4.3334H11.4667V3.26673H10.4V4.3334Z" fill="#84829A"/>
<path d="M10.1333 0.0666504H11.7333C11.8806 0.0666504 12 0.18605 12 0.333317V1.93332C12 2.08058 11.8806 2.19998 11.7333 2.19998H10.1333C9.98607 2.19998 9.86667 2.08058 9.86667 1.93332V0.333317C9.86667 0.18605 9.98607 0.0666504 10.1333 0.0666504ZM10.4 1.66665H11.4667V0.599984H10.4V1.66665Z" fill="#84829A"/>
<path d="M10.1333 5.3999H11.7333C11.8806 5.3999 12 5.5193 12 5.66657V7.26657C12 7.41384 11.8806 7.53324 11.7333 7.53324H10.1333C9.98607 7.53324 9.86667 7.41384 9.86667 7.26657V5.66657C9.86667 5.5193 9.98607 5.3999 10.1333 5.3999ZM10.4 6.9999H11.4667V5.93324H10.4V6.9999Z" fill="#84829A"/>
<path d="M10.1333 8.06665H11.7333C11.8806 8.06665 12 8.18605 12 8.33332V9.93332C12 10.0806 11.8806 10.2 11.7333 10.2H10.1333C9.98607 10.2 9.86667 10.0806 9.86667 9.93332V8.33332C9.86667 8.18605 9.98607 8.06665 10.1333 8.06665ZM10.4 9.66665H11.4667V8.59998H10.4V9.66665Z" fill="#84829A"/>
<path d="M5.06659 11.2666H3.46659C3.31932 11.2666 3.19992 11.1472 3.19992 11V9.39997C3.19992 9.2527 3.31932 9.1333 3.46659 9.1333H5.06659C5.21385 9.1333 5.33325 9.2527 5.33325 9.39997V11C5.33325 11.1472 5.21385 11.2666 5.06659 11.2666ZM4.79992 9.66663H3.73325V10.7333H4.79992V9.66663Z" fill="#84829A"/>
<path d="M5.06659 8.59989H3.46659C3.31932 8.59989 3.19992 8.48049 3.19992 8.33322V6.73322C3.19992 6.58595 3.31932 6.46655 3.46659 6.46655H5.06659C5.21385 6.46655 5.33325 6.58595 5.33325 6.73322V8.33322C5.33325 8.48049 5.21385 8.59989 5.06659 8.59989ZM4.79992 6.99989H3.73325V8.06655H4.79992V6.99989Z" fill="#84829A"/>
<path d="M5.06659 13.9334H3.46659C3.31932 13.9334 3.19992 13.814 3.19992 13.6667V12.0667C3.19992 11.9194 3.31932 11.8 3.46659 11.8H5.06659C5.21385 11.8 5.33325 11.9194 5.33325 12.0667V13.6667C5.33325 13.814 5.21385 13.9334 5.06659 13.9334ZM4.79992 12.3334H3.73325V13.4H4.79992V12.3334Z" fill="#84829A"/>
<path d="M7.73333 11.2666H6.13333C5.98607 11.2666 5.86667 11.1472 5.86667 11V9.39997C5.86667 9.2527 5.98607 9.1333 6.13333 9.1333H7.73333C7.8806 9.1333 8 9.2527 8 9.39997V11C8 11.1472 7.8806 11.2666 7.73333 11.2666ZM7.46667 9.66663H6.4V10.7333H7.46667V9.66663Z" fill="#84829A"/>
<path d="M7.73333 8.59989H6.13333C5.98607 8.59989 5.86667 8.48049 5.86667 8.33322V6.73322C5.86667 6.58595 5.98607 6.46655 6.13333 6.46655H7.73333C7.8806 6.46655 8 6.58595 8 6.73322V8.33322C8 8.48049 7.8806 8.59989 7.73333 8.59989ZM7.46667 6.99989H6.4V8.06655H7.46667V6.99989Z" fill="#84829A"/>
<path d="M7.73333 13.9334H6.13333C5.98607 13.9334 5.86667 13.814 5.86667 13.6667V12.0667C5.86667 11.9194 5.98607 11.8 6.13333 11.8H7.73333C7.8806 11.8 8 11.9194 8 12.0667V13.6667C8 13.814 7.8806 13.9334 7.73333 13.9334ZM7.46667 12.3334H6.4V13.4H7.46667V12.3334Z" fill="#84829A"/>
</svg>
